<svg width="512" height="512" viewBox="0 0 512 512" fill="none" xmlns="http://www.w3.org/2000/svg">
<rect width="512" height="512" fill="#2E2E2E"/>
<path d="M151.428 300H130.422L89.2891 252.715V300H73.9961V211.758H89.2891V252.1L128.928 211.758H149.143L107.746 252.451L151.428 300ZM247.844 255.176C247.844 262.031 246.877 268.33 244.943 274.072C243.01 279.756 240.227 284.648 236.594 288.75C232.961 292.793 228.537 295.957 223.322 298.242C218.107 300.469 212.189 301.582 205.568 301.582C199.24 301.582 193.557 300.615 188.518 298.682C183.537 296.689 179.289 293.789 175.773 289.98C172.316 286.172 169.65 281.455 167.775 275.83C165.959 270.205 165.051 263.73 165.051 256.406C165.051 249.551 166.018 243.311 167.951 237.686C169.885 232.002 172.668 227.139 176.301 223.096C179.934 218.994 184.357 215.83 189.572 213.604C194.787 211.318 200.705 210.176 207.326 210.176C213.654 210.176 219.309 211.172 224.289 213.164C229.328 215.098 233.576 217.969 237.033 221.777C240.549 225.527 243.215 230.215 245.031 235.84C246.906 241.465 247.844 247.91 247.844 255.176ZM232.199 255.879C232.199 250.43 231.584 245.684 230.354 241.641C229.182 237.539 227.482 234.141 225.256 231.445C223.029 228.691 220.305 226.641 217.082 225.293C213.918 223.887 210.373 223.184 206.447 223.184C201.877 223.184 197.951 224.092 194.67 225.908C191.447 227.666 188.781 230.039 186.672 233.027C184.621 236.016 183.098 239.502 182.102 243.486C181.164 247.412 180.695 251.543 180.695 255.879C180.695 261.328 181.281 266.104 182.453 270.205C183.684 274.307 185.412 277.734 187.639 280.488C189.865 283.184 192.561 285.234 195.725 286.641C198.889 287.988 202.463 288.662 206.447 288.662C211.018 288.662 214.914 287.783 218.137 286.025C221.418 284.209 224.084 281.807 226.135 278.818C228.244 275.83 229.768 272.373 230.705 268.447C231.701 264.463 232.199 260.273 232.199 255.879ZM275.529 274.512C277.463 270.41 279.572 267.305 281.857 265.195C284.201 263.086 287.131 261.68 290.646 260.977C286.955 260.273 283.908 259.131 281.506 257.549C279.104 255.967 277.17 254.15 275.705 252.1C274.299 249.99 273.303 247.764 272.717 245.42C272.189 243.076 271.926 240.762 271.926 238.477C271.926 234.609 272.57 230.977 273.859 227.578C275.148 224.18 277.229 221.221 280.1 218.701C282.971 216.182 286.721 214.189 291.35 212.725C296.037 211.26 302.717 210.527 311.389 210.527C316.252 210.527 321.057 210.703 325.803 211.055C330.549 211.348 335.207 211.729 339.777 212.197V300H324.484V265.811H311.213C309.162 265.811 307.053 266.016 304.885 266.426C302.775 266.777 300.842 267.48 299.084 268.535C297.326 269.531 295.715 270.85 294.25 272.49C292.844 274.131 291.584 276.211 290.471 278.73L280.803 300H263.488L275.529 274.512ZM287.57 238.301C287.57 243.34 289.27 247.119 292.668 249.639C296.125 252.158 301.223 253.418 307.961 253.418H324.484V223.887C321.965 223.652 319.533 223.477 317.189 223.359C314.846 223.242 312.385 223.184 309.807 223.184C304.768 223.184 300.93 223.535 298.293 224.238C295.656 224.883 293.576 225.85 292.053 227.139C290.529 228.369 289.387 229.893 288.625 231.709C287.922 233.525 287.57 235.723 287.57 238.301ZM439.885 300H424.592V260.977H384.25V300H368.957V211.758H384.25V247.617H424.592V211.758H439.885V300Z" fill="white"/>
</svg>
